:SAMPLES-PER-SECOND 24
:FULLY-SPECIFIED
:DEGREES
532
root  -4.5026 39.5514 26.0399 18.7181 45.3789 9.79852
RightUpLeg  -25.3682 11.1877 -16.8499
RightLeg  20.8494 -8.9855 -4.27055
RightFoot  -6.09496 -0.101134 1.35231
RightToes  -2.08645e-008 3.77894e-005 6.81332e-007
Spine  0.88513 -6.98716 -7.23158
Spine1  -2.03693 -8.13265 10.0946
HEad  -38.7874 -5.85963 6.19283
LeftShoulder1  7.95478 -13.8492 -39.6542
LeftArm  11.2207 22.1998 -30.4429
LeftForeArm  147.518 -77.0429 -133.765
LeftHand  -0.519439 -2.37078 7.97894
RightShoulder  3.65505 6.27251 31.4978
RightArm  3.32253 -20.3982 30.0205
RightForeArm  96.4308 80.3151 87.2878
RightHand  -0.0105026 9.29281 -0.46669
LeftUpLeg  -4.35625 -1.90281 14.8467
LeftLeg  30.8967 -0.42124 0.0812213
LeftFoot  10.5789 4.36361 -22.6124
LeftToes  1.24767e-006 1.47042e-008 1.32732e-009
533
root  -4.52247 39.8804 24.5546 19.0563 47.7042 9.59052
RightUpLeg  -22.8622 5.39364 -16.0901
RightLeg  13.225 -5.32594 -4.47745
RightFoot  -0.816047 -0.276467 2.9095
RightToes  -2.08645e-008 3.77894e-005 6.81332e-007
Spine  0.574174 -6.03403 -7.75783
Spine1  -2.73717 -6.96883 9.09627
HEad  -36.9898 -8.31735 8.11512
LeftShoulder1  7.62497 -13.6466 -38.3357
LeftArm  8.57252 30.7893 -31.3084
LeftForeArm  147.377 -75.4658 -138.87
LeftHand  -0.487443 -2.17963 7.67819
RightShoulder  3.77471 6.37367 32.3285
RightArm  5.84644 -22.0498 32.1169
RightForeArm  117.866 80.0812 105.997
RightHand  -0.0580814 9.43483 -0.849258
LeftUpLeg  -2.591 4.61841 14.5257
LeftLeg  24.2234 -2.03037 -0.641692
LeftFoot  9.23905 4.36311 -24.0308
LeftToes  1.24767e-006 1.47042e-008 1.32732e-009
534
root  -4.53453 39.7737 22.9171 18.8954 50.6225 8.95703
RightUpLeg  -22.0872 -1.79342 -15.1886
RightLeg  9.50632 -0.293808 -4.75257
RightFoot  2.59103 -0.649218 5.43912
RightToes  -2.08645e-008 3.77894e-005 6.81332e-007
Spine  -0.177584 -5.16312 -7.35203
Spine1  -2.02624 -5.90233 7.73799
HEad  -35.671 -11.6152 10.2237
LeftShoulder1  7.26916 -13.4108 -36.9044
LeftArm  7.87294 35.717 -29.5084
LeftForeArm  151.402 -73.092 -145.412
LeftHand  -0.435098 -2.51996 6.60542
RightShoulder  3.95176 6.57576 33.3207
RightArm  8.27134 -22.4808 32.7877
RightForeArm  132.672 79.1604 119.396
RightHand  0.209587 9.29471 1.25592
LeftUpLeg  -1.84545 9.56464 14.6506
LeftLeg  20.235 -3.80054 -1.22288
LeftFoot  7.99648 4.38293 -25.6262
LeftToes  1.24767e-006 1.47042e-008 1.32732e-009
535
root  -4.62377 39.2743 21.1016 18.0195 55.1559 8.4447
RightUpLeg  -21.7551 -4.07837 -16.7079
RightLeg  9.47331 -2.13986 -4.96464
RightFoot  3.70737 -0.963417 7.47602
RightToes  -2.08645e-008 3.77894e-005 6.81332e-007
Spine  1.18967 -4.81356 -7.13789
Spine1  -1.98984 -5.65154 7.48145
HEad  -35.5808 -15.4413 11.3101
LeftShoulder1  6.98554 -13.222 -35.7263
LeftArm  7.75701 37.3828 -26.6664
LeftForeArm  155.257 -70.8913 -150.037
LeftHand  -0.347188 -2.48334 5.33263
RightShoulder  3.91692 6.53934 33.1171
RightArm  10.861 -21.4707 33.242
RightForeArm  138.308 77.9749 127.572
RightHand  0.378404 9.54974 2.5267
LeftUpLeg  -1.93275 9.19682 14.3909
LeftLeg  19.5667 -2.70398 -0.739242
LeftFoot  3.50647 3.4721 -26.3854
LeftToes  1.24767e-006 1.47042e-008 1.32732e-009
536
root  -4.76996 38.4484 19.0465 15.8829 59.3666 7.19952
RightUpLeg  -22.886 -0.80414 -20.8477
RightLeg  14.1064 -9.25873 -4.68247
RightFoot  4.1461 -1.30501 9.78039
RightToes  -2.08645e-008 3.77894e-005 6.81332e-007
Spine  4.3897 -4.18876 -5.49195
Spine1  -2.66013 -5.0448 6.19577
HEad  -37.0559 -19.8832 11.9931
LeftShoulder1  7.02069 -13.1869 -36.0179
LeftArm  7.65818 34.3123 -23.3837
LeftForeArm  153.556 -71.0135 -149.58
LeftHand  -0.382228 -2.22152 6.02662
RightShoulder  3.8024 6.39622 32.5253
RightArm  11.3947 -19.5913 33.1019
RightForeArm  141.545 77.4006 130.935
RightHand  0.325405 9.78658 2.07228
LeftUpLeg  -2.48949 4.82591 12.9947
LeftLeg  21.3178 0.760748 0.670738
LeftFoot  -7.81338 0.864863 -25.7855
LeftToes  1.24767e-006 1.47042e-008 1.32732e-009
537
root  -4.90363 37.6106 16.9665 15.3917 63.8553 7.92456
RightUpLeg  -22.784 -0.465024 -25.2905
RightLeg  17.4573 -12.6353 -4.59773
RightFoot  5.42369 -1.81476 12.4562
RightToes  -2.08645e-008 3.77894e-005 6.81332e-007
Spine  6.84837 -3.59567 -5.42326
Spine1  -1.66866 -4.74672 6.23405
HEad  -40.1211 -24.4091 13.5573
LeftShoulder1  7.58622 -13.5464 -38.36
LeftArm  6.71628 27.0049 -20.6134
LeftForeArm  147.237 -74.6692 -140.837
LeftHand  -0.531211 -1.78995 8.77633
RightShoulder  3.85036 6.42941 32.8787
RightArm  8.53892 -18.5911 31.8269
RightForeArm  141.576 78.1748 127.477
RightHand  0.224797 10.5013 1.22699
LeftUpLeg  -5.06134 -2.47048 9.64673
LeftLeg  25.5035 4.9178 2.91443
LeftFoot  -19.2853 -1.47245 -22.7739
LeftToes  1.24767e-006 1.47042e-008 1.32732e-009
538
root  -4.89314 37.2815 15.2056 16.1848 68.5146 9.46033
RightUpLeg  -19.7061 -3.76186 -26.7193
RightLeg  14.7143 -13.8037 -6.12276
RightFoot  9.50825 -1.8301 10.2731
RightToes  -2.08645e-008 3.77894e-005 6.81332e-007
Spine  7.28507 -3.14907 -6.93802
Spine1  0.270342 -5.02504 8.82816
HEad  -42.6168 -27.945 15.6228
LeftShoulder1  8.22968 -14.0339 -40.6789
LeftArm  4.10771 22.4213 -20.1725
LeftForeArm  142.327 -77.8331 -129.33
LeftHand  -0.608328 -1.31075 10.6962
RightShoulder  3.9735 6.5231 33.7426
RightArm  5.15826 -20.8327 30.5297
RightForeArm  137.128 78.959 122.102
RightHand  -0.217922 10.3109 -2.02588
LeftUpLeg  -8.26725 -8.25747 6.89355
LeftLeg  29.5123 7.33529 4.81975
LeftFoot  -23.6539 -1.9626 -19.3346
LeftToes  1.24767e-006 1.47042e-008 1.32732e-009
539
root  -4.64514 37.6455 14.0091 12.9154 69.8909 5.6272
RightUpLeg  -18.0071 -9.83794 -23.1333
RightLeg  9.0289 -10.8735 -7.15946
RightFoot  15.0161 -0.831219 3.99373
RightToes  -2.08645e-008 3.77894e-005 6.81332e-007
Spine  5.79531 -2.34602 -6.04113
Spine1  1.01207 -4.26154 9.48811
HEad  -42.5765 -29.6625 16.867
LeftShoulder1  8.19543 -13.9908 -40.6054
LeftArm  1.25589 26.0469 -22.1235
LeftForeArm  150.002 -76.4971 -136.237
LeftHand  -0.601289 -1.11786 10.8713
RightShoulder  4.0405 6.55355 34.2852
RightArm  4.67621 -26.2929 30.3126
RightForeArm  139.376 78.1816 126.881
RightHand  0.0333005 10.0014 -0.158735
LeftUpLeg  -9.26544 -8.74259 6.76978
LeftLeg  29.5897 7.4549 4.90227
LeftFoot  -22.975 -1.6981 -17.8877
LeftToes  1.24767e-006 1.47042e-008 1.32732e-009
540
root  -4.2777 38.5865 13.4102 8.24707 66.9286 -0.382629
RightUpLeg  -19.3112 -10.8576 -18.7892
RightLeg  7.29003 -7.43614 -5.2204
RightFoot  16.5509 -0.435896 2.22149
RightToes  -2.08645e-008 3.77894e-005 6.81332e-007
Spine  2.95963 -1.08227 -3.77997
Spine1  1.35843 -2.39484 7.31833
HEad  -40.9018 -29.2479 17.1984
LeftShoulder1  7.64917 -13.4642 -38.9303
LeftArm  -0.246932 34.2494 -24.0273
LeftForeArm  153.845 -72.6376 -146.792
LeftHand  -0.578453 -0.716404 11.1173
RightShoulder  4.06894 6.59117 34.4157
RightArm  7.14588 -31.0313 31.2558
RightForeArm  146.79 76.7392 134.697
RightHand  0.166981 10.5737 0.792177
LeftUpLeg  -7.71759 -5.22322 7.73083
LeftLeg  25.4179 7.0028 3.95126
LeftFoot  -18.8245 -1.06762 -17.9521
LeftToes  1.24767e-006 1.47042e-008 1.32732e-009
541
root  -3.99171 39.8 13.2509 6.5874 63.0982 -2.91943
RightUpLeg  -20.9446 -8.18288 -15.2353
RightLeg  10.4629 -6.64822 -3.22305
RightFoot  13.9819 -0.820628 4.09537
RightToes  -2.08645e-008 3.77894e-005 6.81332e-007
Spine  -0.0299399 -0.381366 -3.23059
Spine1  2.29196 -1.16932 5.01965
HEad  -38.4693 -27.4605 17.0475
LeftShoulder1  7.1731 -12.9798 -37.4327
LeftArm  -1.51557 41.7005 -24.1367
LeftForeArm  152.877 -71.2766 -149.075
LeftHand  -0.584481 -0.879411 10.9662
RightShoulder  4.08043 6.6467 34.3089
RightArm  10.7014 -32.0572 33.0033
RightForeArm  151.508 76.5415 136.405
RightHand  0.39438 11.2972 2.30509
LeftUpLeg  -5.3291 -0.631137 8.40316
LeftLeg  19.9437 5.97325 2.74688
LeftFoot  -11.0242 0.127329 -18.9934
LeftToes  1.24767e-006 1.47042e-008 1.32732e-009
542
root  -3.82754 40.9066 13.1751 5.11414 61.1965 -4.35681
RightUpLeg  -21.0186 -6.09904 -11.4517
RightLeg  15.4688 -9.7587 -3.46847
RightFoot  11.6348 -0.580868 3.23951
RightToes  -2.08645e-008 3.77894e-005 6.81332e-007
Spine  -1.64156 -0.920457 -2.67237
Spine1  2.94679 -1.28858 2.8338
HEad  -35.1709 -25.6379 16.3716
LeftShoulder1  7.04519 -12.9599 -36.7304
LeftArm  -2.52611 47.2762 -22.3012
LeftForeArm  153.109 -71.935 -147.938
LeftHand  -0.490784 -1.0689 8.9555
RightShoulder  4.07934 6.67797 34.1757
RightArm  14.3993 -30.0064 34.3052
RightForeArm  148.149 77.3578 132.693
RightHand  0.79058 11.4707 4.99273
LeftUpLeg  -3.72846 3.38859 9.44903
LeftLeg  16.4955 3.59947 1.63018
LeftFoot  -2.36186 1.52165 -19.0513
LeftToes  1.24767e-006 1.47042e-008 1.32732e-009
543
root  -3.73758 41.5569 12.916 2.25476 60.9574 -6.4032
RightUpLeg  -20.3788 -6.86844 -7.33288
RightLeg  21.3453 -9.53495 -4.29521
RightFoot  11.4135 -0.254591 1.65658
RightToes  -2.08645e-008 3.77894e-005 6.81332e-007
Spine  -1.4636 -1.96972 -0.858772
Spine1  3.29315 -2.08333 1.21323
HEad  -32.5624 -24.463 15.4767
LeftShoulder1  7.1708 -13.2453 -36.7482
LeftArm  -1.50188 49.8653 -19.5761
LeftForeArm  150.467 -72.5881 -146.294
LeftHand  -0.417766 -0.920609 7.81805
RightShoulder  4.07928 6.67953 34.169
RightArm  17.7957 -26.524 33.6666
RightForeArm  140.66 77.7732 129.114
RightHand  0.71494 10.6484 4.73227
LeftUpLeg  -3.04376 3.22653 10.3919
LeftLeg  16.0619 3.30371 1.49844
LeftFoot  2.69615 2.11609 -17.2118
LeftToes  1.24767e-006 1.47042e-008 1.32732e-009
544
root  -3.70277 41.5532 12.5704 0.197754 60.913 -7.04456
RightUpLeg  -19.9349 -7.263 -4.88386
RightLeg  27.5412 -7.09249 -4.24384
RightFoot  11.244 -0.260959 1.6955
RightToes  -2.08645e-008 3.77894e-005 6.81332e-007
Spine  -0.495426 -2.56965 -0.338128
Spine1  3.82323 -2.63242 1.06335
HEad  -31.6981 -23.9854 14.7435
LeftShoulder1  7.20543 -13.3888 -36.5926
LeftArm  0.979766 48.97 -18.1281
LeftForeArm  148.445 -72.6109 -145.923
LeftHand  -0.415902 -1.04186 7.64632
RightShoulder  4.00776 6.6004 33.7773
RightArm  19.332 -23.3257 31.9522
RightForeArm  137.97 77.6267 129.057
RightHand  0.550056 9.40832 3.8899
LeftUpLeg  -2.96739 -0.297303 9.88304
LeftLeg  18.6216 4.82034 2.12597
LeftFoot  2.51603 1.92427 -15.8722
LeftToes  1.24767e-006 1.47042e-008 1.32732e-009
545
root  -3.66289 40.9324 12.2648 0.202026 59.972 -5.51843
RightUpLeg  -19.3539 -5.91898 -3.97414
RightLeg  31.9177 -9.78069 -6.76432
RightFoot  7.10785 -0.27433 1.95502
RightToes  -2.08645e-008 3.77894e-005 6.81332e-007
Spine  0.685006 -2.3204 -1.47496
Spine1  3.81809 -2.47282 1.60278
HEad  -31.5728 -23.7465 13.849
LeftShoulder1  7.01233 -13.2468 -35.8212
LeftArm  2.82296 46.0013 -18.5827
LeftForeArm  151.302 -71.5658 -148.308
LeftHand  -0.337076 -1.24571 6.04185
RightShoulder  3.8093 6.41732 32.5097
RightArm  18.2448 -21.979 30.8755
RightForeArm  140.061 77.2334 131.23
RightHand  0.318151 8.70032 2.22826
LeftUpLeg  -2.63794 -1.50933 8.38746
LeftLeg  22.3005 4.01818 2.12919
LeftFoot  -2.52607 1.27002 -16.2729
LeftToes  1.24767e-006 1.47042e-008 1.32732e-009
